<svg width="24" height="8" viewBox="0 0 24 8" fill="none" xmlns="http://www.w3.org/2000/svg">
<path d="M0.778764 1.18182V7H1.43786V2.57955H1.49467L3.31286 7H3.94922L5.7674 2.57955H5.82422V7H6.48331V1.18182H5.6424L3.66513 6.01136H3.59695L1.61967 1.18182H0.778764ZM7.89595 7H11.4528V6.375H8.6005V4.39773H11.2255V3.77273H8.6005V1.80682H11.4073V1.18182H7.89595V7ZM17.2908 1.18182H16.5977V5.76136H16.5408L13.359 1.18182H12.6772V7H13.3817V2.43182H13.4386L16.609 7H17.2908V1.18182ZM22.5188 1.18182V4.97727C22.5188 5.82955 21.9336 6.44318 20.962 6.44318C19.9904 6.44318 19.4052 5.82955 19.4052 4.97727V1.18182H18.7006V5.03409C18.7006 6.22727 19.5927 7.10227 20.962 7.10227C22.3313 7.10227 23.2234 6.22727 23.2234 5.03409V1.18182H22.5188Z" fill="#4E5A65"/>
</svg>
